<svg width="275" height="204.131" xmlns="http://www.w3.org/2000/svg">

 <g>
  <title>background</title>
  <rect fill="none" id="canvas_background" height="206.131" width="277" y="-1" x="-1"/>
 </g>
 <g>
  <title>Layer 1</title>
  <g id="svg_1">
   <path id="svg_2" fill="#FFFFFF" d="m276.346,73.821l-93.71,-70.666c-2.496,-1.882 -5.934,-1.882 -8.43,0l-15.405,11.617l-15.405,-11.617c-2.496,-1.882 -5.934,-1.882 -8.43,0l-15.021,11.327l-15.021,-11.327c-2.496,-1.882 -5.934,-1.882 -8.43,0l-93.71,70.666c-1.753,1.323 -2.784,3.393 -2.784,5.589l0,118.977c0,3.866 3.134,7 7,7l38.472,0l39.238,0l109.711,0l38.472,0l39.238,0c3.866,0 7,-3.134 7,-7l0,-118.977c0,-2.196 -1.031,-4.266 -2.785,-5.589zm-11.215,117.566l-25.238,0l0,-111.977c0,-2.197 -1.031,-4.266 -2.785,-5.589l-66.68,-50.282l7.993,-6.028l86.71,65.388l0,108.488zm-63.71,0l0,-111.977c0,-2.197 -1.031,-4.266 -2.785,-5.589l-67.064,-50.571l7.61,-5.738l86.711,65.388l0,108.488l-24.472,0l0,-0.001zm-89.247,-0.001l-20.464,0l-2.464,0l0,-50.76l22.928,0l0,50.76zm14,0l0,-57.76c0,-3.866 -3.134,-7 -7,-7l-36.928,0c-3.866,0 -7,3.134 -7,7l0,57.76l-22.774,0l-38.472,0l0,-108.488l86.71,-65.388l86.711,65.388l0,108.488l-61.247,0z"/>
  </g>
 </g>
</svg>